# This file uses centimeters as units for non-parametric coordinates.

v -0.695015 0.014089 1.098782
v 0.695015 0.014089 1.098782
v -0.695015 0.996343 1.098782
v 0.695015 0.996343 1.098782
v -0.695015 0.996343 -1.098782
v 0.695015 0.996343 -1.098782
v -0.695015 0.014089 -1.098782
v 0.695015 0.014089 -1.098782
v 0.000000 0.996343 -1.098782
v 0.000000 0.996343 1.098782
v 0.347508 0.996343 1.098782
v 0.347508 0.996343 -1.098782
v -0.347508 0.996343 -1.098782
v -0.347508 0.996343 1.098782
v -0.173754 1.043915 1.098782
v -0.173754 1.043915 -1.098782
v 0.521262 1.043915 -1.098782
v 0.521262 1.043915 1.098782
v 0.173754 1.043915 1.098782
v 0.173754 1.043915 -1.098782
v -0.521262 1.043915 -1.098782
v -0.521262 1.043915 1.098782
v 0.695015 0.505216 -1.098782
v 0.695015 0.505216 1.098782
v 0.695015 0.750779 1.098782
v 0.695015 0.259653 -1.098782
v 0.695015 0.750779 -1.098782
v 0.695015 0.259653 1.098782
v 0.724399 0.382434 1.098782
v 0.724399 0.627998 -1.098782
v 0.724399 0.136871 -1.098782
v 0.724399 0.873561 1.098782
v 0.724399 0.627998 1.098782
v 0.724399 0.382434 -1.098782
v 0.724399 0.873561 -1.098782
v 0.724399 0.136871 1.098782
v -0.695015 0.505216 -1.098782
v -0.695015 0.505216 1.098782
v -0.695015 0.750779 1.098782
v -0.695015 0.259653 -1.098782
v -0.695015 0.750779 -1.098782
v -0.695015 0.259653 1.098782
v -0.716440 0.382434 1.098782
v -0.716440 0.627998 -1.098782
v -0.716440 0.136871 -1.098782
v -0.716440 0.873561 1.098782
v -0.716440 0.627998 1.098782
v -0.716440 0.382434 -1.098782
v -0.716440 0.873561 -1.098782
v -0.716440 0.136871 1.098782
vt 0.375000 0.000000
vt 0.625000 0.000000
vt 0.375000 0.250000
vt 0.625000 0.250000
vt 0.375000 0.500000
vt 0.625000 0.500000
vt 0.375000 0.750000
vt 0.625000 0.750000
vt 0.375000 1.000000
vt 0.625000 1.000000
vt 0.875000 0.000000
vt 0.875000 0.250000
vt 0.125000 0.000000
vt 0.125000 0.250000
vt 0.500000 0.500000
vt 0.500000 0.250000
vt 0.562500 0.250000
vt 0.562500 0.500000
vt 0.437500 0.500000
vt 0.437500 0.250000
vt 0.468750 0.250000
vt 0.468750 0.500000
vt 0.593750 0.500000
vt 0.593750 0.250000
vt 0.531250 0.250000
vt 0.531250 0.500000
vt 0.406250 0.500000
vt 0.406250 0.250000
vt 0.625000 0.625000
vt 0.875000 0.125000
vt 0.625000 0.125000
vt 0.625000 0.187500
vt 0.625000 0.687500
vt 0.875000 0.062500
vt 0.625000 0.562500
vt 0.875000 0.187500
vt 0.625000 0.062500
vt 0.625000 0.093750
vt 0.625000 0.593750
vt 0.875000 0.156250
vt 0.625000 0.718750
vt 0.875000 0.031250
vt 0.625000 0.218750
vt 0.625000 0.156250
vt 0.625000 0.656250
vt 0.875000 0.093750
vt 0.625000 0.531250
vt 0.875000 0.218750
vt 0.625000 0.031250
vt 0.125000 0.125000
vt 0.375000 0.625000
vt 0.375000 0.125000
vt 0.375000 0.187500
vt 0.125000 0.062500
vt 0.375000 0.687500
vt 0.125000 0.187500
vt 0.375000 0.562500
vt 0.375000 0.062500
vt 0.375000 0.093750
vt 0.125000 0.156250
vt 0.375000 0.593750
vt 0.125000 0.031250
vt 0.375000 0.718750
vt 0.375000 0.218750
vt 0.375000 0.156250
vt 0.125000 0.093750
vt 0.375000 0.656250
vt 0.125000 0.218750
vt 0.375000 0.531250
vt 0.375000 0.031250
vn 0.000000 0.000000 1.000000
vn 0.000000 0.000000 1.000000
vn 0.000000 0.000000 1.000000
vn 0.000000 0.000000 1.000000
vn 0.000000 0.000000 1.000000
vn -0.000000 0.000000 1.000000
vn 0.000000 0.000000 1.000000
vn 0.000000 0.000000 1.000000
vn -0.000000 0.000000 1.000000
vn 0.000000 0.000000 1.000000
vn 0.000000 0.000000 1.000000
vn 0.000000 0.000000 1.000000
vn 0.000000 0.000000 1.000000
vn 0.000000 0.000000 1.000000
vn 0.000000 0.000000 1.000000
vn 0.000000 0.000000 1.000000
vn 0.000000 0.000000 1.000000
vn 0.000000 0.000000 1.000000
vn 0.000000 0.000000 1.000000
vn 0.000000 0.000000 1.000000
vn 0.000000 0.000000 1.000000
vn 0.000000 0.000000 1.000000
vn 0.000000 0.000000 1.000000
vn 0.000000 0.000000 1.000000
vn 0.000000 0.000000 1.000000
vn -0.264075 0.964502 0.000000
vn -0.264075 0.964502 0.000000
vn -0.264075 0.964502 0.000000
vn -0.264075 0.964502 0.000000
vn 0.000000 0.000000 -1.000000
vn 0.000000 0.000000 -1.000000
vn 0.000000 0.000000 -1.000000
vn 0.000000 0.000000 -1.000000
vn 0.000000 0.000000 -1.000000
vn -0.000000 0.000000 -1.000000
vn 0.000000 0.000000 -1.000000
vn 0.000000 0.000000 -1.000000
vn -0.000000 0.000000 -1.000000
vn 0.000000 0.000000 -1.000000
vn 0.000000 0.000000 -1.000000
vn 0.000000 0.000000 -1.000000
vn 0.000000 0.000000 -1.000000
vn 0.000000 0.000000 -1.000000
vn 0.000000 0.000000 -1.000000
vn 0.000000 0.000000 -1.000000
vn 0.000000 0.000000 -1.000000
vn 0.000000 0.000000 -1.000000
vn -0.000000 0.000000 -1.000000
vn -0.000000 0.000000 -1.000000
vn 0.000000 0.000000 -1.000000
vn 0.000000 0.000000 -1.000000
vn 0.000000 0.000000 -1.000000
vn 0.000000 0.000000 -1.000000
vn 0.000000 0.000000 -1.000000
vn 0.000000 -1.000000 0.000000
vn 0.000000 -1.000000 0.000000
vn 0.000000 -1.000000 0.000000
vn 0.000000 -1.000000 0.000000
vn 0.972539 -0.232741 0.000000
vn 0.972539 -0.232741 0.000000
vn 0.972539 -0.232741 0.000000
vn 0.972539 -0.232741 0.000000
vn -0.985115 -0.171899 0.000000
vn -0.985115 -0.171900 0.000000
vn -0.985115 -0.171899 0.000000
vn -0.985114 -0.171900 0.000000
vn -0.264075 0.964502 0.000000
vn -0.264075 0.964502 0.000000
vn -0.264075 0.964502 0.000000
vn -0.264075 0.964502 0.000000
vn -0.264075 0.964502 0.000000
vn -0.264075 0.964502 0.000000
vn -0.264075 0.964502 0.000000
vn -0.264075 0.964502 0.000000
vn -0.264075 0.964502 0.000000
vn -0.264075 0.964502 0.000000
vn -0.264075 0.964502 0.000000
vn -0.264075 0.964502 0.000000
vn 0.264075 0.964502 0.000000
vn 0.264075 0.964502 0.000000
vn 0.264075 0.964502 0.000000
vn 0.264075 0.964502 0.000000
vn 0.264075 0.964502 0.000000
vn 0.264075 0.964502 0.000000
vn 0.264075 0.964502 0.000000
vn 0.264075 0.964502 0.000000
vn 0.264075 0.964502 0.000000
vn 0.264075 0.964502 0.000000
vn 0.264075 0.964502 0.000000
vn 0.264075 0.964502 0.000000
vn 0.264075 0.964502 0.000000
vn 0.264075 0.964502 0.000000
vn 0.264075 0.964502 0.000000
vn 0.264075 0.964502 0.000000
vn 0.972539 -0.232741 0.000000
vn 0.972539 -0.232741 0.000000
vn 0.972539 -0.232741 0.000000
vn 0.972539 -0.232741 0.000000
vn 0.972539 -0.232741 0.000000
vn 0.972539 -0.232741 0.000000
vn 0.972539 -0.232741 0.000000
vn 0.972539 -0.232741 0.000000
vn 0.972539 -0.232741 0.000000
vn 0.972539 -0.232741 0.000000
vn 0.972539 -0.232741 0.000000
vn 0.972539 -0.232741 0.000000
vn 0.972539 0.232741 0.000000
vn 0.972539 0.232741 0.000000
vn 0.972539 0.232741 0.000000
vn 0.972539 0.232741 0.000000
vn 0.972539 0.232741 0.000000
vn 0.972539 0.232741 0.000000
vn 0.972539 0.232741 0.000000
vn 0.972539 0.232741 0.000000
vn 0.972539 0.232741 0.000000
vn 0.972539 0.232741 0.000000
vn 0.972539 0.232741 0.000000
vn 0.972539 0.232741 0.000000
vn 0.972539 0.232741 0.000000
vn 0.972539 0.232741 0.000000
vn 0.972539 0.232741 0.000000
vn 0.972539 0.232741 0.000000
vn -0.985115 -0.171899 0.000000
vn -0.985115 -0.171900 0.000000
vn -0.985115 -0.171899 0.000000
vn -0.985114 -0.171900 0.000000
vn -0.985115 -0.171899 0.000000
vn -0.985115 -0.171900 0.000000
vn -0.985115 -0.171899 0.000000
vn -0.985114 -0.171900 0.000000
vn -0.985115 -0.171899 0.000000
vn -0.985115 -0.171900 0.000000
vn -0.985115 -0.171899 0.000000
vn -0.985114 -0.171900 0.000000
vn -0.985115 0.171900 0.000000
vn -0.985115 0.171899 0.000000
vn -0.985115 0.171900 0.000000
vn -0.985115 0.171899 0.000000
vn -0.985114 0.171900 0.000000
vn -0.985115 0.171899 0.000000
vn -0.985115 0.171900 0.000000
vn -0.985115 0.171899 0.000000
vn -0.985114 0.171900 0.000000
vn -0.985115 0.171899 0.000000
vn -0.985115 0.171900 0.000000
vn -0.985115 0.171899 0.000000
vn -0.985114 0.171900 0.000000
vn -0.985115 0.171899 0.000000
vn -0.985115 0.171900 0.000000
vn -0.985115 0.171899 0.000000
f 1/1/1 2/2/2 50/70/3
f 50/70/3 2/2/2 42/58/4
f 2/2/2 36/49/5 42/58/4
f 36/49/5 28/37/6 42/58/4
f 42/58/4 28/37/6 43/59/7
f 43/59/7 28/37/6 38/52/8
f 28/37/6 29/38/9 38/52/8
f 29/38/9 24/31/10 38/52/8
f 38/52/8 24/31/10 47/65/11
f 47/65/11 24/31/10 39/53/12
f 24/31/10 33/44/13 39/53/12
f 33/44/13 25/32/14 39/53/12
f 39/53/12 25/32/14 46/64/15
f 46/64/15 25/32/14 3/3/16
f 25/32/14 32/43/17 3/3/16
f 4/4/18 18/24/19 32/43/17
f 18/24/19 11/17/20 32/43/17
f 19/25/21 10/16/22 11/17/20
f 15/21/23 14/20/24 10/16/22
f 22/28/25 3/3/16 14/20/24
f 3/3/16 32/43/17 14/20/24
f 14/20/24 32/43/17 10/16/22
f 32/43/17 11/17/20 10/16/22
f 3/3/26 22/28/27 5/5/28
f 5/5/28 22/28/27 21/27/29
f 7/7/30 45/63/31 8/8/32
f 45/63/31 40/55/33 8/8/32
f 8/8/32 40/55/33 31/41/34
f 31/41/34 40/55/33 26/33/35
f 40/55/33 48/67/36 26/33/35
f 48/67/36 37/51/37 26/33/35
f 26/33/35 37/51/37 34/45/38
f 34/45/38 37/51/37 23/29/39
f 37/51/37 44/61/40 23/29/39
f 44/61/40 41/57/41 23/29/39
f 23/29/39 41/57/41 30/39/42
f 30/39/42 41/57/41 27/35/43
f 41/57/41 49/69/44 27/35/43
f 49/69/44 5/5/45 27/35/43
f 27/35/43 5/5/45 35/47/46
f 6/6/47 35/47/46 17/23/48
f 17/23/48 35/47/46 12/18/49
f 21/27/50 13/19/51 5/5/45
f 5/5/45 13/19/51 35/47/46
f 16/22/52 9/15/53 13/19/51
f 13/19/51 9/15/53 35/47/46
f 35/47/46 9/15/53 12/18/49
f 9/15/53 20/26/54 12/18/49
f 7/7/55 8/8/56 1/9/57
f 1/9/57 8/8/56 2/10/58
f 2/2/59 8/11/60 36/49/61
f 36/49/61 8/11/60 31/42/62
f 7/13/63 1/1/64 45/62/65
f 45/62/65 1/1/64 50/70/66
f 9/15/67 10/16/68 20/26/69
f 20/26/69 10/16/68 19/25/70
f 12/18/71 11/17/72 17/23/73
f 17/23/73 11/17/72 18/24/74
f 13/19/75 14/20/76 16/22/77
f 16/22/77 14/20/76 15/21/78
f 16/22/79 15/21/80 9/15/81
f 9/15/81 15/21/80 10/16/82
f 17/23/83 18/24/84 6/6/85
f 6/6/85 18/24/84 4/4/86
f 20/26/87 19/25/88 12/18/89
f 12/18/89 19/25/88 11/17/90
f 21/27/91 22/28/92 13/19/93
f 13/19/93 22/28/92 14/20/94
f 24/31/95 23/30/96 33/44/97
f 33/44/97 23/30/96 30/40/98
f 25/32/99 27/36/100 32/43/101
f 32/43/101 27/36/100 35/48/102
f 28/37/103 26/34/104 29/38/105
f 29/38/105 26/34/104 34/46/106
f 29/38/107 34/46/108 24/31/109
f 24/31/109 34/46/108 23/30/110
f 32/43/111 35/48/112 4/4/113
f 4/4/113 35/48/112 6/12/114
f 33/44/115 30/40/116 25/32/117
f 25/32/117 30/40/116 27/36/118
f 36/49/119 31/42/120 28/37/121
f 28/37/121 31/42/120 26/34/122
f 37/50/123 38/52/124 44/60/125
f 44/60/125 38/52/124 47/65/126
f 41/56/127 39/53/128 49/68/129
f 49/68/129 39/53/128 46/64/130
f 40/54/131 42/58/132 48/66/133
f 48/66/133 42/58/132 43/59/134
f 48/66/135 43/59/136 37/50/137
f 37/50/137 43/59/136 38/52/138
f 49/68/139 46/64/140 5/14/141
f 5/14/141 46/64/140 3/3/142
f 44/60/143 47/65/144 41/56/145
f 41/56/145 47/65/144 39/53/146
f 45/62/147 50/70/148 40/54/149
f 40/54/149 50/70/148 42/58/150
