# This file uses centimeters as units for non-parametric coordinates.

v 0.433013 1.503017 -0.500000
v -0.433013 1.503017 -0.500000
v -0.866025 0.753017 -0.500000
v -0.433013 0.003017 -0.500000
v 0.433013 0.003017 -0.500000
v 0.866025 0.753017 -0.500000
v 0.433013 1.503017 0.500000
v -0.433013 1.503017 0.500000
v -0.866025 0.753017 0.500000
v -0.433013 0.003017 0.500000
v 0.433013 0.003017 0.500000
v 0.866025 0.753017 0.500000
v 0.000000 0.753017 -1.000000
v 0.000000 0.753017 1.000000
vt 0.000000 0.333333
vt 0.166667 0.333333
vt 0.333333 0.333333
vt 0.500000 0.333333
vt 0.666667 0.333333
vt 0.833333 0.333333
vt 1.000000 0.333333
vt 0.000000 0.666667
vt 0.166667 0.666667
vt 0.333333 0.666667
vt 0.500000 0.666667
vt 0.666667 0.666667
vt 0.833333 0.666667
vt 1.000000 0.666667
vt 0.083333 0.000000
vt 0.250000 0.000000
vt 0.416667 0.000000
vt 0.583333 0.000000
vt 0.750000 0.000000
vt 0.916667 0.000000
vt 0.083333 1.000000
vt 0.250000 1.000000
vt 0.416667 1.000000
vt 0.583333 1.000000
vt 0.750000 1.000000
vt 0.916667 1.000000
vn 0.000000 1.000000 0.000000
vn 0.000000 1.000000 0.000000
vn 0.000000 1.000000 0.000000
vn 0.000000 1.000000 0.000000
vn -0.866025 0.500000 0.000000
vn -0.866025 0.500000 0.000000
vn -0.866025 0.500000 0.000000
vn -0.866025 0.500000 0.000000
vn -0.866026 -0.500000 0.000000
vn -0.866026 -0.500000 0.000000
vn -0.866026 -0.500000 0.000000
vn -0.866026 -0.500000 0.000000
vn -0.000000 -1.000000 0.000000
vn -0.000000 -1.000000 0.000000
vn -0.000000 -1.000000 0.000000
vn -0.000000 -1.000000 0.000000
vn 0.866025 -0.500000 0.000000
vn 0.866025 -0.500000 0.000000
vn 0.866025 -0.500000 0.000000
vn 0.866025 -0.500000 0.000000
vn 0.866026 0.500000 0.000000
vn 0.866026 0.500000 0.000000
vn 0.866026 0.500000 0.000000
vn 0.866026 0.500000 0.000000
vn 0.000000 0.554700 -0.832050
vn 0.000000 0.554700 -0.832050
vn 0.000000 0.554700 -0.832050
vn -0.480384 0.277350 -0.832050
vn -0.480384 0.277350 -0.832050
vn -0.480384 0.277350 -0.832050
vn -0.480385 -0.277350 -0.832050
vn -0.480385 -0.277350 -0.832050
vn -0.480385 -0.277350 -0.832050
vn -0.000000 -0.554700 -0.832050
vn -0.000000 -0.554700 -0.832050
vn -0.000000 -0.554700 -0.832050
vn 0.480385 -0.277350 -0.832050
vn 0.480385 -0.277350 -0.832050
vn 0.480385 -0.277350 -0.832050
vn 0.480385 0.277350 -0.832050
vn 0.480385 0.277350 -0.832050
vn 0.480384 0.277350 -0.832050
vn 0.000000 0.554700 0.832051
vn 0.000000 0.554700 0.832051
vn 0.000000 0.554700 0.832051
vn -0.480384 0.277350 0.832050
vn -0.480384 0.277350 0.832050
vn -0.480384 0.277350 0.832050
vn -0.480385 -0.277350 0.832050
vn -0.480385 -0.277350 0.832050
vn -0.480385 -0.277350 0.832050
vn -0.000000 -0.554700 0.832050
vn -0.000000 -0.554700 0.832050
vn -0.000000 -0.554700 0.832050
vn 0.480385 -0.277350 0.832050
vn 0.480385 -0.277350 0.832050
vn 0.480385 -0.277350 0.832050
vn 0.480384 0.277350 0.832050
vn 0.480384 0.277350 0.832050
vn 0.480384 0.277350 0.832050
f 1/1/1 2/2/2 7/8/3
f 7/8/3 2/2/2 8/9/4
f 2/2/5 3/3/6 8/9/7
f 8/9/7 3/3/6 9/10/8
f 3/3/9 4/4/10 9/10/11
f 9/10/11 4/4/10 10/11/12
f 4/4/13 5/5/14 10/11/15
f 10/11/15 5/5/14 11/12/16
f 5/5/17 6/6/18 11/12/19
f 11/12/19 6/6/18 12/13/20
f 6/6/21 1/7/22 12/13/23
f 12/13/23 1/7/22 7/14/24
f 2/2/25 1/1/26 13/15/27
f 3/3/28 2/2/29 13/16/30
f 4/4/31 3/3/32 13/17/33
f 5/5/34 4/4/35 13/18/36
f 6/6/37 5/5/38 13/19/39
f 1/7/40 6/6/41 13/20/42
f 7/8/43 8/9/44 14/21/45
f 8/9/46 9/10/47 14/22/48
f 9/10/49 10/11/50 14/23/51
f 10/11/52 11/12/53 14/24/54
f 11/12/55 12/13/56 14/25/57
f 12/13/58 7/14/59 14/26/60
